# xmcd
# 
# Track frame offsets:
#     150
#     14115
#     28322
#     44802
#     55114
#     74287
#     89675
#     106542
#     118645
#     134150
#     149947
#     166067
#     178672
#     194797
# 
# Disc length: 2762
# 
# Revision: 5
# Processed by: cddbd v1.5.2PL0 Copyright (c) Steve Scherf et al.
# Submitted via: fre:ac v1.0.17
# 
DISCID=e20ac80e
DTITLE=Felipe e Falcão - Acústico
DYEAR=0
DGENRE=
TTITLE0=Paixao pra mais de mes
TTITLE1=Amargurado
TTITLE2=Que pena
TTITLE3=Expresso Boiadeiro
TTITLE4=A Sementinha
TTITLE5=O Carro e a Faculdade
TTITLE6=Arrependida
TTITLE7=Pot-Pourri Forro
TTITLE8=Meu Reino Encantado
TTITLE9=Porta do Mundo
TTITLE10=Deixa Eu te Amar por Favor
TTITLE11=Vestido de Seda
TTITLE12=E Eu sem ninguem
TTITLE13=Hoje Nao e nosso dia
EXTD=
EXTT0=
EXTT1=
EXTT2=
EXTT3=
EXTT4=
EXTT5=
EXTT6=
EXTT7=
EXTT8=
EXTT9=
EXTT10=
EXTT11=
EXTT12=
EXTT13=
PLAYORDER=
